<svg width="92" height="93" viewBox="0 0 92 93" fill="none" xmlns="http://www.w3.org/2000/svg">
<path fill-rule="evenodd" clip-rule="evenodd" d="M90.5455 15.1673C91.0008 15.8582 91.2037 16.6852 91.1198 17.5084C91.036 18.3316 90.6707 19.1007 90.0855 19.6858L46.0358 63.7308C45.5851 64.1812 45.0229 64.5036 44.4066 64.6652L26.0593 69.4568C25.4528 69.615 24.8155 69.6118 24.2106 69.4476C23.6058 69.2833 23.0544 68.9638 22.6112 68.5206C22.168 68.0774 21.8484 67.526 21.6842 66.9211C21.5199 66.3162 21.5167 65.6789 21.6749 65.0725L26.4666 46.73C26.6099 46.1807 26.8734 45.67 27.238 45.235L71.4507 1.051C72.1246 0.378013 73.038 0 73.9903 0C74.9427 0 75.8561 0.378013 76.5299 1.051L90.0855 14.6018C90.253 14.7784 90.4068 14.9674 90.5455 15.1673ZM82.462 17.1414L73.9903 8.67455L33.1749 49.49L30.1801 60.9564L41.6466 57.9616L82.462 17.1414Z" fill="#444444"/>
<path d="M81.8533 71.4407C83.163 60.2471 83.5811 48.9672 83.1039 37.7074C83.0926 37.442 83.1366 37.1772 83.2332 36.9297C83.3297 36.6822 83.4766 36.4575 83.6645 36.2699L88.3795 31.5549C88.5084 31.4253 88.6719 31.3357 88.8504 31.2968C89.0289 31.2579 89.2149 31.2714 89.386 31.3357C89.557 31.4 89.7059 31.5123 89.8146 31.6591C89.9234 31.8059 89.9875 31.9811 89.9991 32.1634C90.8841 45.5381 90.5473 58.9657 88.9928 72.2792C87.862 81.968 80.0803 89.5628 70.4347 90.6409C53.6894 92.4941 36.7908 92.4941 20.0456 90.6409C10.4047 89.5628 2.61826 81.968 1.48743 72.2792C-0.495809 55.2946 -0.495809 38.1368 1.48743 21.1522C2.61826 11.4634 10.3999 3.86862 20.0456 2.79049C32.7552 1.38676 45.5598 1.04537 58.3262 1.76987C58.5089 1.78298 58.684 1.84819 58.8308 1.95776C58.9776 2.06732 59.0899 2.21666 59.1544 2.38809C59.219 2.55952 59.233 2.74585 59.1949 2.92502C59.1568 3.10418 59.0682 3.26868 58.9395 3.39903L54.1814 8.15237C53.9954 8.3385 53.773 8.48434 53.5282 8.58079C53.2833 8.67725 53.0213 8.72224 52.7583 8.71299C42.1052 8.34811 31.4397 8.75647 20.8458 9.93487C17.7501 10.2775 14.8603 11.6537 12.6432 13.8413C10.4261 16.0288 9.01117 18.8999 8.62701 21.9907C6.70487 38.418 6.70487 55.0134 8.62701 71.4407C9.01117 74.5315 10.4261 77.4026 12.6432 79.5901C14.8603 81.7776 17.7501 83.1539 20.8458 83.4965C36.9218 85.2934 53.5585 85.2934 69.6393 83.4965C72.735 83.1539 75.6248 81.7776 77.8419 79.5901C80.059 77.4026 81.4691 74.5315 81.8533 71.4407Z" fill="#444444"/>
</svg>
