<svg width="92" height="94" viewBox="0 0 92 94" fill="none" xmlns="http://www.w3.org/2000/svg">
<path fill-rule="evenodd" clip-rule="evenodd" d="M35.7862 2.10872C42.1155 0.671631 48.6773 0.592358 55.0394 1.87612C61.4016 3.15989 67.4195 5.77755 72.6967 9.55663C77.9739 13.3357 82.3906 18.1904 85.6558 23.8009C88.921 29.4113 90.9605 35.6501 91.6399 42.1063C91.7595 43.2426 91.4228 44.3799 90.704 45.268C89.9852 46.1561 88.9431 46.7222 87.8071 46.8417C86.671 46.9613 85.5339 46.6246 84.6461 45.9056C83.7582 45.1866 83.1922 44.1443 83.0727 43.008C82.3345 35.993 79.6245 29.3308 75.2567 23.793C70.8888 18.2551 65.0418 14.0683 58.393 11.7175C51.7441 9.36669 44.5654 8.94806 37.6885 10.5101C30.8115 12.0721 24.5177 15.5509 19.536 20.5435C14.5544 25.5361 11.0887 31.8382 9.54055 38.7199C7.99236 45.6015 8.42497 52.781 10.7883 59.4268C13.1516 66.0726 17.3489 71.9127 22.894 76.2707C28.4391 80.6287 35.105 83.3262 42.1198 84.0508C42.6865 84.1037 43.237 84.2683 43.7397 84.5353C44.2424 84.8023 44.6871 85.1663 45.0483 85.6062C45.4095 86.0462 45.6799 86.5534 45.8439 87.0985C46.0079 87.6436 46.0623 88.2158 46.0038 88.7821C45.9454 89.3484 45.7753 89.8974 45.5035 90.3975C45.2316 90.8976 44.8633 91.3389 44.4199 91.6958C43.9765 92.0527 43.4668 92.3181 42.9202 92.4768C42.3736 92.6354 41.801 92.6841 41.2355 92.6201C30.3996 91.5049 20.3125 86.5745 12.7747 78.7088C5.23679 70.8432 0.738713 60.5542 0.0832767 49.6783C-0.57216 38.8024 2.6577 28.0474 9.19637 19.3331C15.735 10.6187 25.157 4.51199 35.7805 2.10298L35.7862 2.10872ZM64.7897 59.6583C64.3923 59.2471 63.9169 58.9191 63.3914 58.6936C62.8658 58.4681 62.3007 58.3496 61.7288 58.3449C61.157 58.3402 60.59 58.4494 60.0608 58.6663C59.5317 58.8831 59.051 59.2032 58.6468 59.6078C58.2426 60.0125 57.9231 60.4936 57.7068 61.0231C57.4905 61.5525 57.3818 62.1198 57.387 62.6918C57.3923 63.2637 57.5114 63.8289 57.7373 64.3544C57.9632 64.8798 58.2916 65.355 58.7031 65.7521L68.5795 75.6309L58.7031 85.5097C58.2799 85.904 57.9406 86.3796 57.7052 86.908C57.4698 87.4364 57.3432 88.0068 57.333 88.5852C57.3228 89.1636 57.4292 89.7381 57.6458 90.2744C57.8624 90.8108 58.1848 91.298 58.5937 91.7071C59.0027 92.1161 59.4898 92.4386 60.0261 92.6552C60.5623 92.8719 61.1367 92.9783 61.7149 92.9681C62.2932 92.9579 62.8635 92.8313 63.3917 92.5959C63.92 92.3604 64.3955 92.021 64.7897 91.5977L74.6662 81.719L84.5427 91.5977C84.9369 92.021 85.4124 92.3604 85.9406 92.5959C86.4689 92.8313 87.0392 92.9579 87.6174 92.9681C88.1957 92.9783 88.7701 92.8719 89.3063 92.6552C89.8426 92.4386 90.3297 92.1161 90.7386 91.7071C91.1476 91.298 91.47 90.8108 91.6866 90.2744C91.9032 89.7381 92.0095 89.1636 91.9993 88.5852C91.9891 88.0068 91.8626 87.4364 91.6272 86.908C91.3918 86.3796 91.0524 85.904 90.6293 85.5097L80.7529 75.6309L90.6293 65.7521C91.0524 65.3578 91.3918 64.8822 91.6272 64.3538C91.8626 63.8254 91.9891 63.255 91.9993 62.6766C92.0095 62.0982 91.9032 61.5237 91.6866 60.9874C91.47 60.451 91.1476 59.9637 90.7386 59.5547C90.3297 59.1457 89.8426 58.8232 89.3063 58.6065C88.7701 58.3899 88.1957 58.2835 87.6174 58.2937C87.0392 58.3039 86.4689 58.4305 85.9406 58.6659C85.4124 58.9014 84.9369 59.2408 84.5427 59.664L74.6662 69.5428L64.7897 59.6583ZM66.2253 37.0348C66.986 36.2182 67.4001 35.1382 67.3804 34.0222C67.3607 32.9062 66.9088 31.8415 66.1197 31.0522C65.3307 30.263 64.2662 29.8109 63.1505 29.7912C62.0348 29.7716 60.955 30.1858 60.1386 30.9467L37.3423 53.7483L30.3369 46.7412C29.5205 45.9803 28.4408 45.5661 27.3251 45.5858C26.2094 45.6055 25.1448 46.0576 24.3558 46.8468C23.5668 47.636 23.1148 48.7008 23.0951 49.8167C23.0754 50.9327 23.4896 52.0127 24.2503 52.8293L34.299 62.8804C35.1065 63.6871 36.2011 64.1402 37.3423 64.1402C38.4836 64.1402 39.5782 63.6871 40.3857 62.8804L66.2253 37.0348Z" fill="#444444"/>
</svg>
