<svg width="124" height="27" viewBox="0 0 124 27" fill="none" xmlns="http://www.w3.org/2000/svg">
<path d="M9.04438 20.4641C8.75372 20.0977 8.4961 19.7711 8.23695 19.4456C6.34517 17.0683 5.06311 15.4837 3.15812 13.1185C3.03613 12.9772 2.6363 12.1756 2.46861 11.7948C2.30093 11.4141 2.18016 10.4003 2.18639 10.2064C2.20214 7.87893 2.20032 6.60758 2.20032 4.28064C2.20032 3.95296 2.18406 3.62529 2.17796 3.29761C2.17618 3.21262 2.17923 3.12758 2.18711 3.043C2.19473 2.96274 2.21505 2.8847 2.30093 2.86256C2.37715 2.84263 2.42593 2.89466 2.46861 2.95167C2.52603 3.02805 2.57888 3.10776 2.63782 3.18193C5.48608 6.75574 8.33502 10.3296 11.1846 13.9034C13.0139 16.2019 14.839 18.5039 16.6598 20.8095C17.3026 21.6198 17.6049 22.5608 17.5079 23.6229C17.3925 24.8877 16.5139 26.4768 14.8498 26.7945C14.5293 26.8529 14.2047 26.8805 13.8798 26.877C10.124 26.877 6.36837 26.877 2.61292 26.877C1.81261 26.877 1.0123 26.8814 0.211483 26.8848C0.129673 26.8848 0.0504045 26.8776 0.0122945 26.7851C-0.0258156 26.6927 0.0326198 26.639 0.0793682 26.5798C1.59462 24.6702 3.10937 22.7598 4.62361 20.8488C4.8355 20.5798 5.07178 20.4502 5.4036 20.4547C6.53521 20.4707 7.66683 20.463 8.79844 20.4641L9.04438 20.4641Z" fill="#0E6F00"/>
<path d="M18.7909 20.7375C18.7324 20.732 18.7157 20.6822 18.6892 20.6523C17.2995 18.9193 15.9001 17.1945 14.5251 15.4493C13.899 14.654 13.6104 13.6864 13.5088 12.6569C13.3203 10.8121 13.8564 9.22903 14.9666 7.84139C16.9992 5.30245 19.0226 2.74912 21.0526 0.207967C21.1201 0.123281 21.1664 -0.0488565 21.3066 0.0131362C21.4469 0.075129 21.3839 0.234539 21.3839 0.349115C21.3864 3.12938 21.8591 3.57328 21.8647 6.35355C21.8541 6.66454 21.7933 8.38441 20.65 9.79511C20.0606 10.5224 19.9982 10.7689 19.4225 11.5095C18.922 12.1527 18.5729 12.8932 18.3249 13.6875C17.6643 15.7992 17.7151 17.887 18.5546 19.9361C18.6252 20.1093 18.707 20.277 18.7863 20.447C18.8305 20.5449 18.8467 20.6412 18.7909 20.7375Z" fill="#0E6F00"/>
<path d="M27.0215 1.94036H30.3261V26.62H27.0215V1.94036ZM30.3942 13.5006L40.2739 1.94036H44.2599L34.312 13.3485L45.2479 26.62H40.9553L30.3942 13.5006ZM51.4787 27.0003C49.9115 27.0003 48.6964 26.8355 47.8334 26.5059C46.993 26.1763 46.3798 25.5933 45.9937 24.7567C45.6303 23.9201 45.4486 22.7159 45.4486 21.1441C45.4486 19.7497 45.619 18.6723 45.9596 17.9118C46.323 17.1259 46.9249 16.5682 47.7653 16.2386C48.6283 15.909 49.8434 15.7442 51.4105 15.7442H56.3504V12.8161C56.3504 12.1316 56.2255 11.6119 55.9756 11.257C55.7485 10.8767 55.351 10.6106 54.7833 10.4585C54.2382 10.3063 53.4319 10.2303 52.3644 10.2303C50.661 10.2303 48.7759 10.3824 46.7091 10.6866V8.17682C48.9576 7.94866 50.9903 7.83458 52.8073 7.83458C54.7151 7.83458 56.1233 7.99934 57.0318 8.32893C57.9402 8.63315 58.5648 9.17818 58.9055 9.9641C59.2462 10.75 59.4165 11.9669 59.4165 13.6147V26.62H56.4526V24.8707C56.2027 26.2904 54.5448 27.0003 51.4787 27.0003ZM51.9897 24.7567C53.1025 24.7567 54.0451 24.668 54.8173 24.4905C55.8394 24.2623 56.3504 23.7299 56.3504 22.8933V17.8737H51.6149C50.6383 17.8737 49.9342 17.9625 49.5027 18.1399C49.0712 18.292 48.7873 18.5963 48.651 19.0526C48.5147 19.5089 48.4466 20.2441 48.4466 21.2582C48.4466 22.1708 48.5261 22.8807 48.6851 23.3877C48.844 23.8694 49.128 24.2243 49.5368 24.4524C49.9456 24.6552 50.5588 24.7567 51.3765 24.7567H51.9897ZM63.5593 8.21485H66.4551V11.219C66.4551 10.6359 66.6822 10.0908 67.1364 9.58383C67.5907 9.05145 68.1698 8.63315 68.8739 8.32893C69.5779 7.99934 70.2707 7.83458 70.9521 7.83458H72.4511V10.7627H70.7477C69.2941 10.7627 68.238 10.9782 67.5793 11.4091C66.9434 11.8148 66.6254 12.5626 66.6254 13.6527V26.62H63.5593V8.21485ZM81.687 27.0003C80.4605 27.0003 79.4725 26.9242 78.723 26.7721C77.9963 26.6454 77.2695 26.3918 76.5427 26.0116C75.0664 25.2256 74.3283 23.4257 74.3283 20.6117V0.000976562H77.3944V5.51492V7.68247C77.3717 8.34158 77.3603 9.07682 77.3603 9.88804C77.4739 9.30498 77.9509 8.81063 78.7912 8.40498C79.6543 8.02471 80.9034 7.83458 82.5387 7.83458C87.0809 7.83458 89.3523 9.57117 89.3523 13.0443V20.6117C89.3523 21.7018 89.2048 22.6525 88.9094 23.4637C88.6368 24.275 88.2732 24.9088 87.8192 25.3651C87.4104 25.7961 86.8424 26.1383 86.1158 26.3918C85.4118 26.6454 84.7077 26.8101 84.0036 26.8862C83.3677 26.9622 82.5955 27.0003 81.687 27.0003ZM81.7551 24.7567C82.9361 24.7567 83.8332 24.668 84.4465 24.4905C85.0824 24.2877 85.5366 23.9327 85.8092 23.4257C86.0817 22.9187 86.218 22.1454 86.218 21.1061V13.8809C86.218 12.8415 86.0817 12.0682 85.8092 11.5612C85.5366 11.0289 85.0824 10.6866 84.4465 10.5345C83.8332 10.357 82.9248 10.2683 81.721 10.2683C80.6082 10.2683 79.7451 10.3697 79.1319 10.5725C78.5186 10.7753 78.0757 11.1429 77.8032 11.6753C77.5307 12.1823 77.3944 12.9176 77.3944 13.8809V21.1061C77.3944 22.1454 77.5193 22.9187 77.7691 23.4257C78.0417 23.9327 78.4846 24.2877 79.0978 24.4905C79.711 24.668 80.5968 24.7567 81.7551 24.7567ZM97.9585 27.0003C96.3914 27.0003 95.1761 26.8355 94.3133 26.5059C93.4727 26.1763 92.8595 25.5933 92.4736 24.7567C92.11 23.9201 91.9285 22.7159 91.9285 21.1441C91.9285 19.7497 92.0989 18.6723 92.4395 17.9118C92.8031 17.1259 93.4046 16.5682 94.2451 16.2386C95.108 15.909 96.3233 15.7442 97.8904 15.7442H102.83V12.8161C102.83 12.1316 102.705 11.6119 102.456 11.257C102.228 10.8767 101.831 10.6106 101.263 10.4585C100.718 10.3063 99.9116 10.2303 98.8443 10.2303C97.1409 10.2303 95.256 10.3824 93.189 10.6866V8.17682C95.4375 7.94866 97.4704 7.83458 99.2872 7.83458C101.195 7.83458 102.603 7.99934 103.512 8.32893C104.42 8.63315 105.045 9.17818 105.385 9.9641C105.726 10.75 105.896 11.9669 105.896 13.6147V26.62H102.932V24.8707C102.683 26.2904 101.025 27.0003 97.9585 27.0003ZM98.4696 24.7567C99.5827 24.7567 100.525 24.668 101.297 24.4905C102.319 24.2623 102.83 23.7299 102.83 22.8933V17.8737H98.0948C97.118 17.8737 96.4143 17.9625 95.9826 18.1399C95.5509 18.292 95.2672 18.5963 95.1309 19.0526C94.9946 19.5089 94.9265 20.2441 94.9265 21.2582C94.9265 22.1708 95.0058 22.8807 95.165 23.3877C95.3242 23.8694 95.6079 24.2243 96.0167 24.4524C96.4255 24.6552 97.0387 24.7567 97.8563 24.7567H98.4696ZM110.039 8.21485H112.935V11.219C112.935 10.6359 113.162 10.0908 113.616 9.58383C114.07 9.05145 114.65 8.63315 115.354 8.32893C116.058 7.99934 116.751 7.83458 117.432 7.83458H118.931V10.7627H117.228C115.774 10.7627 114.718 10.9782 114.059 11.4091C113.423 11.8148 113.105 12.5626 113.105 13.6527V26.62H110.039V8.21485ZM120.808 1.56009H123.874V5.13465H120.808V1.56009ZM120.808 8.21485H123.874V26.62H120.808V8.21485Z" fill="#063000"/>
</svg>
