<svg width="14" height="15" viewBox="0 0 14 15" fill="none" xmlns="http://www.w3.org/2000/svg">
<path d="M6.88231 0C5.97851 0 5.08357 0.193993 4.24857 0.570903C3.41356 0.947814 2.65486 1.50026 2.01578 2.1967C0.725099 3.60322 0 5.51088 0 7.5C0 9.48912 0.725099 11.3968 2.01578 12.8033C2.65486 13.4997 3.41356 14.0522 4.24857 14.4291C5.08357 14.806 5.97851 15 6.88231 15C8.70761 15 10.4582 14.2098 11.7488 12.8033C13.0395 11.3968 13.7646 9.48912 13.7646 7.5C13.7646 6.51509 13.5866 5.53982 13.2407 4.62987C12.8949 3.71993 12.3879 2.89314 11.7488 2.1967C11.1098 1.50026 10.3511 0.947814 9.51606 0.570903C8.68106 0.193993 7.78611 0 6.88231 0ZM3.48933 12.21C3.78527 11.535 5.58844 10.875 6.88231 10.875C8.17619 10.875 9.97935 11.535 10.2753 12.21C9.31134 13.047 8.11485 13.5019 6.88231 13.5C5.6022 13.5 4.42533 13.02 3.48933 12.21ZM11.2595 11.1225C10.2753 9.8175 7.88713 9.375 6.88231 9.375C5.87749 9.375 3.48933 9.8175 2.50516 11.1225C1.77301 10.0835 1.37623 8.81003 1.37646 7.5C1.37646 4.1925 3.84721 1.5 6.88231 1.5C9.91741 1.5 12.3882 4.1925 12.3882 7.5C12.3882 8.865 11.9615 10.125 11.2595 11.1225ZM6.88231 3C5.54714 3 4.4735 4.17 4.4735 5.625C4.4735 7.08 5.54714 8.25 6.88231 8.25C8.21748 8.25 9.29112 7.08 9.29112 5.625C9.29112 4.17 8.21748 3 6.88231 3ZM6.88231 6.75C6.60852 6.75 6.34593 6.63147 6.15233 6.42049C5.95873 6.20952 5.84997 5.92337 5.84997 5.625C5.84997 5.32663 5.95873 5.04048 6.15233 4.8295C6.34593 4.61853 6.60852 4.5 6.88231 4.5C7.15611 4.5 7.41869 4.61853 7.61229 4.8295C7.80589 5.04048 7.91466 5.32663 7.91466 5.625C7.91466 5.92337 7.80589 6.20952 7.61229 6.42049C7.41869 6.63147 7.15611 6.75 6.88231 6.75Z" fill="#444444"/>
</svg>
