<svg width="339" height="108" viewBox="0 0 339 108" fill="none" xmlns="http://www.w3.org/2000/svg">
<rect width="339" height="108" fill="#D9D9D9"/>
<path d="M56.6388 48.756C56.6388 50.324 56.2608 51.794 55.5048 53.166C54.7768 54.538 53.6148 55.644 52.0188 56.484C50.4508 57.324 48.4628 57.744 46.0548 57.744H41.1408V69H35.2608V39.684H46.0548C48.3228 39.684 50.2548 40.076 51.8508 40.86C53.4468 41.644 54.6368 42.722 55.4208 44.094C56.2328 45.466 56.6388 47.02 56.6388 48.756ZM45.8028 52.998C47.4268 52.998 48.6308 52.634 49.4148 51.906C50.1988 51.15 50.5908 50.1 50.5908 48.756C50.5908 45.9 48.9948 44.472 45.8028 44.472H41.1408V52.998H45.8028ZM59.1015 57.282C59.1015 54.93 59.5635 52.844 60.4875 51.024C61.4395 49.204 62.7135 47.804 64.3095 46.824C65.9335 45.844 67.7395 45.354 69.7275 45.354C71.4635 45.354 72.9755 45.704 74.2635 46.404C75.5795 47.104 76.6295 47.986 77.4135 49.05V45.732H83.3355V69H77.4135V65.598C76.6575 66.69 75.6075 67.6 74.2635 68.328C72.9475 69.028 71.4215 69.378 69.6855 69.378C67.7255 69.378 65.9335 68.874 64.3095 67.866C62.7135 66.858 61.4395 65.444 60.4875 63.624C59.5635 61.776 59.1015 59.662 59.1015 57.282ZM77.4135 57.366C77.4135 55.938 77.1335 54.72 76.5735 53.712C76.0135 52.676 75.2575 51.892 74.3055 51.36C73.3535 50.8 72.3315 50.52 71.2395 50.52C70.1475 50.52 69.1395 50.786 68.2155 51.318C67.2915 51.85 66.5355 52.634 65.9475 53.67C65.3875 54.678 65.1075 55.882 65.1075 57.282C65.1075 58.682 65.3875 59.914 65.9475 60.978C66.5355 62.014 67.2915 62.812 68.2155 63.372C69.1675 63.932 70.1755 64.212 71.2395 64.212C72.3315 64.212 73.3535 63.946 74.3055 63.414C75.2575 62.854 76.0135 62.07 76.5735 61.062C77.1335 60.026 77.4135 58.794 77.4135 57.366ZM95.7244 50.562V61.818C95.7244 62.602 95.9064 63.176 96.2704 63.54C96.6624 63.876 97.3064 64.044 98.2024 64.044H100.932V69H97.2364C92.2804 69 89.8024 66.592 89.8024 61.776V50.562H87.0304V45.732H89.8024V39.978H95.7244V45.732H100.932V50.562H95.7244ZM118.066 45.396C119.83 45.396 121.398 45.788 122.77 46.572C124.142 47.328 125.206 48.462 125.962 49.974C126.746 51.458 127.138 53.25 127.138 55.35V69H121.258V56.148C121.258 54.3 120.796 52.886 119.872 51.906C118.948 50.898 117.688 50.394 116.092 50.394C114.468 50.394 113.18 50.898 112.228 51.906C111.304 52.886 110.842 54.3 110.842 56.148V69H104.962V37.92H110.842V48.63C111.598 47.622 112.606 46.838 113.866 46.278C115.126 45.69 116.526 45.396 118.066 45.396ZM131.017 57.282C131.017 54.93 131.479 52.844 132.403 51.024C133.355 49.204 134.629 47.804 136.225 46.824C137.849 45.844 139.655 45.354 141.643 45.354C143.379 45.354 144.891 45.704 146.179 46.404C147.495 47.104 148.545 47.986 149.329 49.05V45.732H155.251V69H149.329V65.598C148.573 66.69 147.523 67.6 146.179 68.328C144.863 69.028 143.337 69.378 141.601 69.378C139.641 69.378 137.849 68.874 136.225 67.866C134.629 66.858 133.355 65.444 132.403 63.624C131.479 61.776 131.017 59.662 131.017 57.282ZM149.329 57.366C149.329 55.938 149.049 54.72 148.489 53.712C147.929 52.676 147.173 51.892 146.221 51.36C145.269 50.8 144.247 50.52 143.155 50.52C142.063 50.52 141.055 50.786 140.131 51.318C139.207 51.85 138.451 52.634 137.863 53.67C137.303 54.678 137.023 55.882 137.023 57.282C137.023 58.682 137.303 59.914 137.863 60.978C138.451 62.014 139.207 62.812 140.131 63.372C141.083 63.932 142.091 64.212 143.155 64.212C144.247 64.212 145.269 63.946 146.221 63.414C147.173 62.854 147.929 62.07 148.489 61.062C149.049 60.026 149.329 58.794 149.329 57.366ZM171.126 69.378C168.886 69.378 166.87 68.888 165.078 67.908C163.286 66.9 161.872 65.486 160.836 63.666C159.828 61.846 159.324 59.746 159.324 57.366C159.324 54.986 159.842 52.886 160.878 51.066C161.942 49.246 163.384 47.846 165.204 46.866C167.024 45.858 169.054 45.354 171.294 45.354C173.534 45.354 175.564 45.858 177.384 46.866C179.204 47.846 180.632 49.246 181.668 51.066C182.732 52.886 183.264 54.986 183.264 57.366C183.264 59.746 182.718 61.846 181.626 63.666C180.562 65.486 179.106 66.9 177.258 67.908C175.438 68.888 173.394 69.378 171.126 69.378ZM171.126 64.254C172.19 64.254 173.184 64.002 174.108 63.498C175.06 62.966 175.816 62.182 176.376 61.146C176.936 60.11 177.216 58.85 177.216 57.366C177.216 55.154 176.628 53.46 175.452 52.284C174.304 51.08 172.89 50.478 171.21 50.478C169.53 50.478 168.116 51.08 166.968 52.284C165.848 53.46 165.288 55.154 165.288 57.366C165.288 59.578 165.834 61.286 166.926 62.49C168.046 63.666 169.446 64.254 171.126 64.254ZM203.065 64.338H212.725V69H197.185V39.684H203.065V64.338ZM226.594 69.378C224.354 69.378 222.338 68.888 220.546 67.908C218.754 66.9 217.34 65.486 216.304 63.666C215.296 61.846 214.792 59.746 214.792 57.366C214.792 54.986 215.31 52.886 216.346 51.066C217.41 49.246 218.852 47.846 220.672 46.866C222.492 45.858 224.522 45.354 226.762 45.354C229.002 45.354 231.032 45.858 232.852 46.866C234.672 47.846 236.1 49.246 237.136 51.066C238.2 52.886 238.732 54.986 238.732 57.366C238.732 59.746 238.186 61.846 237.094 63.666C236.03 65.486 234.574 66.9 232.726 67.908C230.906 68.888 228.862 69.378 226.594 69.378ZM226.594 64.254C227.658 64.254 228.652 64.002 229.576 63.498C230.528 62.966 231.284 62.182 231.844 61.146C232.404 60.11 232.684 58.85 232.684 57.366C232.684 55.154 232.096 53.46 230.92 52.284C229.772 51.08 228.358 50.478 226.678 50.478C224.998 50.478 223.584 51.08 222.436 52.284C221.316 53.46 220.756 55.154 220.756 57.366C220.756 59.578 221.302 61.286 222.394 62.49C223.514 63.666 224.914 64.254 226.594 64.254ZM251.96 45.354C253.696 45.354 255.222 45.704 256.538 46.404C257.854 47.076 258.89 47.958 259.646 49.05V45.732H265.568V69.168C265.568 71.324 265.134 73.242 264.266 74.922C263.398 76.63 262.096 77.974 260.36 78.954C258.624 79.962 256.524 80.466 254.06 80.466C250.756 80.466 248.04 79.696 245.912 78.156C243.812 76.616 242.622 74.516 242.342 71.856H248.18C248.488 72.92 249.146 73.76 250.154 74.376C251.19 75.02 252.436 75.342 253.892 75.342C255.6 75.342 256.986 74.824 258.05 73.788C259.114 72.78 259.646 71.24 259.646 69.168V65.556C258.89 66.648 257.84 67.558 256.496 68.286C255.18 69.014 253.668 69.378 251.96 69.378C250 69.378 248.208 68.874 246.584 67.866C244.96 66.858 243.672 65.444 242.72 63.624C241.796 61.776 241.334 59.662 241.334 57.282C241.334 54.93 241.796 52.844 242.72 51.024C243.672 49.204 244.946 47.804 246.542 46.824C248.166 45.844 249.972 45.354 251.96 45.354ZM259.646 57.366C259.646 55.938 259.366 54.72 258.806 53.712C258.246 52.676 257.49 51.892 256.538 51.36C255.586 50.8 254.564 50.52 253.472 50.52C252.38 50.52 251.372 50.786 250.448 51.318C249.524 51.85 248.768 52.634 248.18 53.67C247.62 54.678 247.34 55.882 247.34 57.282C247.34 58.682 247.62 59.914 248.18 60.978C248.768 62.014 249.524 62.812 250.448 63.372C251.4 63.932 252.408 64.212 253.472 64.212C254.564 64.212 255.586 63.946 256.538 63.414C257.49 62.854 258.246 62.07 258.806 61.062C259.366 60.026 259.646 58.794 259.646 57.366ZM281.442 69.378C279.202 69.378 277.186 68.888 275.394 67.908C273.602 66.9 272.188 65.486 271.152 63.666C270.144 61.846 269.64 59.746 269.64 57.366C269.64 54.986 270.158 52.886 271.194 51.066C272.258 49.246 273.7 47.846 275.52 46.866C277.34 45.858 279.37 45.354 281.61 45.354C283.85 45.354 285.88 45.858 287.7 46.866C289.52 47.846 290.948 49.246 291.984 51.066C293.048 52.886 293.58 54.986 293.58 57.366C293.58 59.746 293.034 61.846 291.942 63.666C290.878 65.486 289.422 66.9 287.574 67.908C285.754 68.888 283.71 69.378 281.442 69.378ZM281.442 64.254C282.506 64.254 283.5 64.002 284.424 63.498C285.376 62.966 286.132 62.182 286.692 61.146C287.252 60.11 287.532 58.85 287.532 57.366C287.532 55.154 286.944 53.46 285.768 52.284C284.62 51.08 283.206 50.478 281.526 50.478C279.846 50.478 278.432 51.08 277.284 52.284C276.164 53.46 275.604 55.154 275.604 57.366C275.604 59.578 276.15 61.286 277.242 62.49C278.362 63.666 279.762 64.254 281.442 64.254Z" fill="#18181B"/>
</svg>
