<svg width="321" height="108" viewBox="0 0 321 108" fill="none" xmlns="http://www.w3.org/2000/svg">
<rect width="320.013" height="108" fill="#D9D9D9"/>
<path d="M39.02 55.294C36.976 55.294 35.128 54.944 33.476 54.244C31.852 53.544 30.564 52.536 29.612 51.22C28.66 49.904 28.17 48.35 28.142 46.558H34.442C34.526 47.762 34.946 48.714 35.702 49.414C36.486 50.114 37.55 50.464 38.894 50.464C40.266 50.464 41.344 50.142 42.128 49.498C42.912 48.826 43.304 47.958 43.304 46.894C43.304 46.026 43.038 45.312 42.506 44.752C41.974 44.192 41.302 43.758 40.49 43.45C39.706 43.114 38.614 42.75 37.214 42.358C35.31 41.798 33.756 41.252 32.552 40.72C31.376 40.16 30.354 39.334 29.486 38.242C28.646 37.122 28.226 35.638 28.226 33.79C28.226 32.054 28.66 30.542 29.528 29.254C30.396 27.966 31.614 26.986 33.182 26.314C34.75 25.614 36.542 25.264 38.558 25.264C41.582 25.264 44.032 26.006 45.908 27.49C47.812 28.946 48.862 30.99 49.058 33.622H42.59C42.534 32.614 42.1 31.788 41.288 31.144C40.504 30.472 39.454 30.136 38.138 30.136C36.99 30.136 36.066 30.43 35.366 31.018C34.694 31.606 34.358 32.46 34.358 33.58C34.358 34.364 34.61 35.022 35.114 35.554C35.646 36.058 36.29 36.478 37.046 36.814C37.83 37.122 38.922 37.486 40.322 37.906C42.226 38.466 43.78 39.026 44.984 39.586C46.188 40.146 47.224 40.986 48.092 42.106C48.96 43.226 49.394 44.696 49.394 46.516C49.394 48.084 48.988 49.54 48.176 50.884C47.364 52.228 46.174 53.306 44.606 54.118C43.038 54.902 41.176 55.294 39.02 55.294ZM61.1377 36.562V47.818C61.1377 48.602 61.3197 49.176 61.6837 49.54C62.0757 49.876 62.7197 50.044 63.6157 50.044H66.3457V55H62.6497C57.6937 55 55.2157 52.592 55.2157 47.776V36.562H52.4437V31.732H55.2157V25.978H61.1377V31.732H66.3457V36.562H61.1377ZM92.005 42.862C92.005 43.702 91.949 44.458 91.837 45.13H74.827C74.967 46.81 75.555 48.126 76.591 49.078C77.627 50.03 78.901 50.506 80.413 50.506C82.597 50.506 84.151 49.568 85.075 47.692H91.417C90.745 49.932 89.457 51.78 87.553 53.236C85.649 54.664 83.311 55.378 80.539 55.378C78.299 55.378 76.283 54.888 74.491 53.908C72.727 52.9 71.341 51.486 70.333 49.666C69.353 47.846 68.863 45.746 68.863 43.366C68.863 40.958 69.353 38.844 70.333 37.024C71.313 35.204 72.685 33.804 74.449 32.824C76.213 31.844 78.243 31.354 80.539 31.354C82.751 31.354 84.725 31.83 86.461 32.782C88.225 33.734 89.583 35.092 90.535 36.856C91.515 38.592 92.005 40.594 92.005 42.862ZM85.915 41.182C85.887 39.67 85.341 38.466 84.277 37.57C83.213 36.646 81.911 36.184 80.371 36.184C78.915 36.184 77.683 36.632 76.675 37.528C75.695 38.396 75.093 39.614 74.869 41.182H85.915ZM94.5848 43.282C94.5848 40.93 95.0468 38.844 95.9708 37.024C96.9228 35.204 98.1968 33.804 99.7928 32.824C101.417 31.844 103.223 31.354 105.211 31.354C106.947 31.354 108.459 31.704 109.747 32.404C111.063 33.104 112.113 33.986 112.897 35.05V31.732H118.819V55H112.897V51.598C112.141 52.69 111.091 53.6 109.747 54.328C108.431 55.028 106.905 55.378 105.169 55.378C103.209 55.378 101.417 54.874 99.7928 53.866C98.1968 52.858 96.9228 51.444 95.9708 49.624C95.0468 47.776 94.5848 45.662 94.5848 43.282ZM112.897 43.366C112.897 41.938 112.617 40.72 112.057 39.712C111.497 38.676 110.741 37.892 109.789 37.36C108.837 36.8 107.815 36.52 106.723 36.52C105.631 36.52 104.623 36.786 103.699 37.318C102.775 37.85 102.019 38.634 101.431 39.67C100.871 40.678 100.591 41.882 100.591 43.282C100.591 44.682 100.871 45.914 101.431 46.978C102.019 48.014 102.775 48.812 103.699 49.372C104.651 49.932 105.659 50.212 106.723 50.212C107.815 50.212 108.837 49.946 109.789 49.414C110.741 48.854 111.497 48.07 112.057 47.062C112.617 46.026 112.897 44.794 112.897 43.366ZM122.85 43.282C122.85 40.93 123.312 38.844 124.236 37.024C125.188 35.204 126.476 33.804 128.1 32.824C129.724 31.844 131.53 31.354 133.518 31.354C135.03 31.354 136.472 31.69 137.844 32.362C139.216 33.006 140.308 33.874 141.12 34.966V23.92H147.084V55H141.12V51.556C140.392 52.704 139.37 53.628 138.054 54.328C136.738 55.028 135.212 55.378 133.476 55.378C131.516 55.378 129.724 54.874 128.1 53.866C126.476 52.858 125.188 51.444 124.236 49.624C123.312 47.776 122.85 45.662 122.85 43.282ZM141.162 43.366C141.162 41.938 140.882 40.72 140.322 39.712C139.762 38.676 139.006 37.892 138.054 37.36C137.102 36.8 136.08 36.52 134.988 36.52C133.896 36.52 132.888 36.786 131.964 37.318C131.04 37.85 130.284 38.634 129.696 39.67C129.136 40.678 128.856 41.882 128.856 43.282C128.856 44.682 129.136 45.914 129.696 46.978C130.284 48.014 131.04 48.812 131.964 49.372C132.916 49.932 133.924 50.212 134.988 50.212C136.08 50.212 137.102 49.946 138.054 49.414C139.006 48.854 139.762 48.07 140.322 47.062C140.882 46.026 141.162 44.794 141.162 43.366ZM163.295 36.562H159.221V55H153.257V36.562H150.611V31.732H153.257V30.556C153.257 27.7 154.069 25.6 155.693 24.256C157.317 22.912 159.767 22.282 163.043 22.366V27.322C161.615 27.294 160.621 27.532 160.061 28.036C159.501 28.54 159.221 29.45 159.221 30.766V31.732H163.295V36.562ZM165.393 43.282C165.393 40.93 165.855 38.844 166.779 37.024C167.731 35.204 169.005 33.804 170.601 32.824C172.225 31.844 174.031 31.354 176.019 31.354C177.755 31.354 179.267 31.704 180.555 32.404C181.871 33.104 182.921 33.986 183.705 35.05V31.732H189.627V55H183.705V51.598C182.949 52.69 181.899 53.6 180.555 54.328C179.239 55.028 177.713 55.378 175.977 55.378C174.017 55.378 172.225 54.874 170.601 53.866C169.005 52.858 167.731 51.444 166.779 49.624C165.855 47.776 165.393 45.662 165.393 43.282ZM183.705 43.366C183.705 41.938 183.425 40.72 182.865 39.712C182.305 38.676 181.549 37.892 180.597 37.36C179.645 36.8 178.623 36.52 177.531 36.52C176.439 36.52 175.431 36.786 174.507 37.318C173.583 37.85 172.827 38.634 172.239 39.67C171.679 40.678 171.399 41.882 171.399 43.282C171.399 44.682 171.679 45.914 172.239 46.978C172.827 48.014 173.583 48.812 174.507 49.372C175.459 49.932 176.467 50.212 177.531 50.212C178.623 50.212 179.645 49.946 180.597 49.414C181.549 48.854 182.305 48.07 182.865 47.062C183.425 46.026 183.705 44.794 183.705 43.366ZM204.074 55.378C202.17 55.378 200.462 55.042 198.95 54.37C197.438 53.67 196.234 52.732 195.338 51.556C194.47 50.38 193.994 49.078 193.91 47.65H199.832C199.944 48.546 200.378 49.288 201.134 49.876C201.918 50.464 202.884 50.758 204.032 50.758C205.152 50.758 206.02 50.534 206.636 50.086C207.28 49.638 207.602 49.064 207.602 48.364C207.602 47.608 207.21 47.048 206.426 46.684C205.67 46.292 204.452 45.872 202.772 45.424C201.036 45.004 199.608 44.57 198.488 44.122C197.396 43.674 196.444 42.988 195.632 42.064C194.848 41.14 194.456 39.894 194.456 38.326C194.456 37.038 194.82 35.862 195.548 34.798C196.304 33.734 197.368 32.894 198.74 32.278C200.14 31.662 201.778 31.354 203.654 31.354C206.426 31.354 208.638 32.054 210.29 33.454C211.942 34.826 212.852 36.688 213.02 39.04H207.392C207.308 38.116 206.916 37.388 206.216 36.856C205.544 36.296 204.634 36.016 203.486 36.016C202.422 36.016 201.596 36.212 201.008 36.604C200.448 36.996 200.168 37.542 200.168 38.242C200.168 39.026 200.56 39.628 201.344 40.048C202.128 40.44 203.346 40.846 204.998 41.266C206.678 41.686 208.064 42.12 209.156 42.568C210.248 43.016 211.186 43.716 211.97 44.668C212.782 45.592 213.202 46.824 213.23 48.364C213.23 49.708 212.852 50.912 212.096 51.976C211.368 53.04 210.304 53.88 208.904 54.496C207.532 55.084 205.922 55.378 204.074 55.378ZM224.703 36.562V47.818C224.703 48.602 224.885 49.176 225.249 49.54C225.641 49.876 226.285 50.044 227.181 50.044H229.911V55H226.215C221.259 55 218.781 52.592 218.781 47.776V36.562H216.009V31.732H218.781V25.978H224.703V31.732H229.911V36.562H224.703ZM34.778 78.338H44.438V83H28.898V53.684H34.778V78.338ZM58.3073 83.378C56.0673 83.378 54.0513 82.888 52.2593 81.908C50.4673 80.9 49.0533 79.486 48.0173 77.666C47.0093 75.846 46.5053 73.746 46.5053 71.366C46.5053 68.986 47.0233 66.886 48.0593 65.066C49.1233 63.246 50.5653 61.846 52.3853 60.866C54.2053 59.858 56.2353 59.354 58.4753 59.354C60.7153 59.354 62.7453 59.858 64.5653 60.866C66.3853 61.846 67.8133 63.246 68.8493 65.066C69.9133 66.886 70.4453 68.986 70.4453 71.366C70.4453 73.746 69.8993 75.846 68.8073 77.666C67.7433 79.486 66.2873 80.9 64.4393 81.908C62.6193 82.888 60.5753 83.378 58.3073 83.378ZM58.3073 78.254C59.3713 78.254 60.3653 78.002 61.2893 77.498C62.2413 76.966 62.9973 76.182 63.5573 75.146C64.1173 74.11 64.3973 72.85 64.3973 71.366C64.3973 69.154 63.8093 67.46 62.6333 66.284C61.4853 65.08 60.0713 64.478 58.3913 64.478C56.7113 64.478 55.2973 65.08 54.1493 66.284C53.0293 67.46 52.4693 69.154 52.4693 71.366C52.4693 73.578 53.0153 75.286 54.1073 76.49C55.2273 77.666 56.6273 78.254 58.3073 78.254ZM83.6725 59.354C85.4085 59.354 86.9345 59.704 88.2505 60.404C89.5665 61.076 90.6025 61.958 91.3585 63.05V59.732H97.2805V83.168C97.2805 85.324 96.8465 87.242 95.9785 88.922C95.1105 90.63 93.8085 91.974 92.0725 92.954C90.3365 93.962 88.2365 94.466 85.7725 94.466C82.4685 94.466 79.7525 93.696 77.6245 92.156C75.5245 90.616 74.3345 88.516 74.0545 85.856H79.8925C80.2005 86.92 80.8585 87.76 81.8665 88.376C82.9025 89.02 84.1485 89.342 85.6045 89.342C87.3125 89.342 88.6985 88.824 89.7625 87.788C90.8265 86.78 91.3585 85.24 91.3585 83.168V79.556C90.6025 80.648 89.5525 81.558 88.2085 82.286C86.8925 83.014 85.3805 83.378 83.6725 83.378C81.7125 83.378 79.9205 82.874 78.2965 81.866C76.6725 80.858 75.3845 79.444 74.4325 77.624C73.5085 75.776 73.0465 73.662 73.0465 71.282C73.0465 68.93 73.5085 66.844 74.4325 65.024C75.3845 63.204 76.6585 61.804 78.2545 60.824C79.8785 59.844 81.6845 59.354 83.6725 59.354ZM91.3585 71.366C91.3585 69.938 91.0785 68.72 90.5185 67.712C89.9585 66.676 89.2025 65.892 88.2505 65.36C87.2985 64.8 86.2765 64.52 85.1845 64.52C84.0925 64.52 83.0845 64.786 82.1605 65.318C81.2365 65.85 80.4805 66.634 79.8925 67.67C79.3325 68.678 79.0525 69.882 79.0525 71.282C79.0525 72.682 79.3325 73.914 79.8925 74.978C80.4805 76.014 81.2365 76.812 82.1605 77.372C83.1125 77.932 84.1205 78.212 85.1845 78.212C86.2765 78.212 87.2985 77.946 88.2505 77.414C89.2025 76.854 89.9585 76.07 90.5185 75.062C91.0785 74.026 91.3585 72.794 91.3585 71.366ZM113.155 83.378C110.915 83.378 108.899 82.888 107.107 81.908C105.315 80.9 103.901 79.486 102.865 77.666C101.857 75.846 101.353 73.746 101.353 71.366C101.353 68.986 101.871 66.886 102.907 65.066C103.971 63.246 105.413 61.846 107.233 60.866C109.053 59.858 111.083 59.354 113.323 59.354C115.563 59.354 117.593 59.858 119.413 60.866C121.233 61.846 122.661 63.246 123.697 65.066C124.761 66.886 125.293 68.986 125.293 71.366C125.293 73.746 124.747 75.846 123.655 77.666C122.591 79.486 121.135 80.9 119.287 81.908C117.467 82.888 115.423 83.378 113.155 83.378ZM113.155 78.254C114.219 78.254 115.213 78.002 116.137 77.498C117.089 76.966 117.845 76.182 118.405 75.146C118.965 74.11 119.245 72.85 119.245 71.366C119.245 69.154 118.657 67.46 117.481 66.284C116.333 65.08 114.919 64.478 113.239 64.478C111.559 64.478 110.145 65.08 108.997 66.284C107.877 67.46 107.317 69.154 107.317 71.366C107.317 73.578 107.863 75.286 108.955 76.49C110.075 77.666 111.475 78.254 113.155 78.254Z" fill="#18181B"/>
</svg>
