<svg width="359" height="88" viewBox="0 0 359 88" fill="none" xmlns="http://www.w3.org/2000/svg">
<path d="M1.5 25C14.6941 25.7705 46.3658 26.8491 67.5 25" stroke="#191D23" stroke-width="2" stroke-linecap="round"/>
<path d="M46.5083 25.9899C35.5083 27.7289 12.0852 31.3921 4.61349 31.6034C-4.72613 31.8675 33.933 31.6034 52.0231 31.6034C69.9908 31.6034 46.9531 33.5182 27.3844 35.0371" stroke="#191D23" stroke-width="2" stroke-linecap="round"/>
<path d="M181.446 61.5972C169.157 64.6609 154.484 65.243 143.684 57.5057C136.782 52.5611 133.117 42.5625 135.696 34.4469C138.132 26.7823 143.821 20.0479 152.346 20.2532C156.789 20.3602 160.62 22.4045 161.429 27.0838C162.665 34.2327 155.533 41.6306 149.863 44.7403C132.167 54.445 107.134 53.9049 90.2767 42.6404" stroke="#0E6F00" stroke-width="3" stroke-linecap="round"/>
<path d="M97.7065 55.8442C95.6446 52.963 91.1418 46.2413 89.6266 42.4049" stroke="#0E6F00" stroke-width="3" stroke-linecap="round"/>
<path d="M89.6265 42.4048C93.1391 41.9413 101.123 40.6355 104.96 39.1203" stroke="#0E6F00" stroke-width="3" stroke-linecap="round"/>
<path d="M197.578 71.181C196.27 71.181 195.1 70.881 194.068 70.281C193.036 69.681 192.226 68.859 191.638 67.815C191.062 66.759 190.774 65.577 190.774 64.269C190.774 62.997 191.068 61.851 191.656 60.831C192.244 59.811 193.06 59.013 194.104 58.437C195.148 57.861 196.324 57.573 197.632 57.573C198.34 57.573 198.976 57.639 199.54 57.771C200.116 57.891 200.584 58.035 200.944 58.203C201.304 58.359 201.55 58.497 201.682 58.617L200.89 60.309C200.146 59.709 199.048 59.409 197.596 59.409C196.636 59.409 195.802 59.619 195.094 60.039C194.386 60.459 193.846 61.029 193.474 61.749C193.102 62.469 192.916 63.273 192.916 64.161C192.916 65.169 193.114 66.069 193.51 66.861C193.918 67.653 194.476 68.271 195.184 68.715C195.904 69.147 196.714 69.363 197.614 69.363C198.178 69.363 198.718 69.297 199.234 69.165C199.75 69.021 200.188 68.799 200.548 68.499V65.943H197.83V64.089H202.546V69.273C202.114 69.813 201.46 70.269 200.584 70.641C199.72 71.001 198.718 71.181 197.578 71.181ZM208.579 71.181C207.595 71.181 206.773 70.989 206.113 70.605C205.453 70.209 204.967 69.687 204.655 69.039C204.343 68.379 204.187 67.659 204.187 66.879C204.187 66.003 204.367 65.235 204.727 64.575C205.099 63.915 205.609 63.411 206.257 63.063C206.905 62.703 207.637 62.523 208.453 62.523C209.725 62.523 210.667 62.877 211.279 63.585C211.903 64.281 212.215 65.265 212.215 66.537C212.215 66.861 212.197 67.197 212.161 67.545H206.221C206.353 68.277 206.611 68.805 206.995 69.129C207.391 69.453 207.937 69.615 208.633 69.615C209.209 69.615 209.683 69.567 210.055 69.471C210.427 69.375 210.769 69.243 211.081 69.075L211.675 70.461C211.375 70.653 210.967 70.821 210.451 70.965C209.935 71.109 209.311 71.181 208.579 71.181ZM210.325 66.195C210.337 65.451 210.175 64.929 209.839 64.629C209.503 64.317 209.023 64.161 208.399 64.161C207.139 64.161 206.413 64.839 206.221 66.195H210.325ZM214.973 64.323H213.515V62.739H214.973V59.373L216.935 58.941V62.739H218.843V64.323H216.935V71.001H214.973V64.323ZM227.481 59.535H224.097V57.771H232.899V59.535H229.479V71.001H227.481V59.535ZM238.681 66.411L236.233 71.001H235.891L232.417 62.739H234.505L236.287 67.545L238.645 62.739H238.717L241.093 67.509L242.875 62.739H244.927L241.471 71.001H241.129L238.681 66.411ZM249.903 71.181C249.051 71.181 248.295 70.989 247.635 70.605C246.975 70.221 246.465 69.699 246.105 69.039C245.745 68.379 245.565 67.647 245.565 66.843C245.565 66.051 245.739 65.325 246.087 64.665C246.447 64.005 246.957 63.483 247.617 63.099C248.277 62.715 249.039 62.523 249.903 62.523C250.767 62.523 251.523 62.715 252.171 63.099C252.831 63.483 253.335 64.005 253.683 64.665C254.043 65.325 254.223 66.051 254.223 66.843C254.223 67.647 254.043 68.379 253.683 69.039C253.323 69.699 252.813 70.221 252.153 70.605C251.505 70.989 250.755 71.181 249.903 71.181ZM249.957 69.597C250.653 69.597 251.199 69.339 251.595 68.823C252.003 68.307 252.207 67.659 252.207 66.879C252.207 66.099 251.991 65.445 251.559 64.917C251.127 64.377 250.557 64.107 249.849 64.107C249.165 64.107 248.613 64.371 248.193 64.899C247.785 65.427 247.581 66.087 247.581 66.879C247.581 67.647 247.803 68.295 248.247 68.823C248.691 69.339 249.261 69.597 249.957 69.597ZM264.24 64.827L263.412 62.955L263.034 64.827L261.81 71.001H259.812L262.548 57.771H262.764L266.4 64.917L267.48 67.311L268.56 64.917L272.124 57.771H272.322L275.166 71.001H273.186L271.854 64.827L271.458 62.955L270.738 64.827L267.534 71.001H267.426L264.24 64.827ZM280.665 71.181C279.813 71.181 279.057 70.989 278.397 70.605C277.737 70.221 277.227 69.699 276.867 69.039C276.507 68.379 276.327 67.647 276.327 66.843C276.327 66.051 276.501 65.325 276.849 64.665C277.209 64.005 277.719 63.483 278.379 63.099C279.039 62.715 279.801 62.523 280.665 62.523C281.529 62.523 282.285 62.715 282.933 63.099C283.593 63.483 284.097 64.005 284.445 64.665C284.805 65.325 284.985 66.051 284.985 66.843C284.985 67.647 284.805 68.379 284.445 69.039C284.085 69.699 283.575 70.221 282.915 70.605C282.267 70.989 281.517 71.181 280.665 71.181ZM280.719 69.597C281.415 69.597 281.961 69.339 282.357 68.823C282.765 68.307 282.969 67.659 282.969 66.879C282.969 66.099 282.753 65.445 282.321 64.917C281.889 64.377 281.319 64.107 280.611 64.107C279.927 64.107 279.375 64.371 278.955 64.899C278.547 65.427 278.343 66.087 278.343 66.879C278.343 67.647 278.565 68.295 279.009 68.823C279.453 69.339 280.023 69.597 280.719 69.597ZM287.061 62.739H288.969L288.987 64.251C289.215 63.747 289.575 63.333 290.067 63.009C290.559 62.685 291.135 62.523 291.795 62.523C292.647 62.523 293.301 62.703 293.757 63.063C294.213 63.411 294.519 63.903 294.675 64.539C294.831 65.175 294.909 66.003 294.909 67.023V71.001H292.965V67.077C292.965 66.033 292.863 65.283 292.659 64.827C292.455 64.359 292.035 64.125 291.399 64.125C291.039 64.125 290.673 64.239 290.301 64.467C289.929 64.683 289.617 65.001 289.365 65.421C289.125 65.841 289.005 66.333 289.005 66.897V71.001H287.061V62.739ZM298.135 64.323H296.677V62.739H298.135V59.373L300.097 58.941V62.739H302.005V64.323H300.097V71.001H298.135V64.323ZM303.675 57.771H305.565V62.739L305.493 64.269C305.721 63.765 306.087 63.351 306.591 63.027C307.095 62.691 307.683 62.523 308.355 62.523C309.207 62.523 309.861 62.703 310.317 63.063C310.773 63.411 311.079 63.903 311.235 64.539C311.391 65.175 311.469 66.003 311.469 67.023V71.001H309.543V67.005C309.543 66.309 309.501 65.763 309.417 65.367C309.345 64.971 309.189 64.671 308.949 64.467C308.721 64.263 308.385 64.161 307.941 64.161C307.581 64.161 307.215 64.269 306.843 64.485C306.483 64.701 306.183 65.019 305.943 65.439C305.703 65.847 305.583 66.333 305.583 66.897V71.001H303.675V57.771ZM316.782 71.181C316.206 71.181 315.606 71.109 314.982 70.965C314.37 70.809 313.932 70.629 313.668 70.425L314.316 68.895C315.036 69.399 315.858 69.651 316.782 69.651C317.706 69.651 318.168 69.381 318.168 68.841C318.168 68.601 318.072 68.415 317.88 68.283C317.688 68.151 317.346 67.995 316.854 67.815L316.17 67.563C315.45 67.275 314.88 66.933 314.46 66.537C314.04 66.129 313.83 65.595 313.83 64.935C313.83 64.179 314.124 63.591 314.712 63.171C315.312 62.739 316.11 62.523 317.106 62.523C317.598 62.523 318.078 62.577 318.546 62.685C319.026 62.793 319.392 62.931 319.644 63.099L318.942 64.647C318.786 64.491 318.534 64.359 318.186 64.251C317.85 64.131 317.472 64.071 317.052 64.071C316.2 64.071 315.774 64.329 315.774 64.845C315.774 65.133 315.888 65.355 316.116 65.511C316.344 65.655 316.716 65.817 317.232 65.997C317.28 66.009 317.466 66.075 317.79 66.195C318.558 66.495 319.128 66.837 319.5 67.221C319.872 67.605 320.058 68.097 320.058 68.697C320.058 69.513 319.746 70.131 319.122 70.551C318.51 70.971 317.73 71.181 316.782 71.181ZM326.597 57.771H332.807V59.517H328.595V63.261H331.871V65.025H328.595V71.001H326.597V57.771ZM334.292 62.739H336.236V64.359C336.428 63.807 336.74 63.363 337.172 63.027C337.604 62.691 338.096 62.523 338.648 62.523C339.032 62.523 339.296 62.559 339.44 62.631L339.17 64.593C339.062 64.521 338.828 64.485 338.468 64.485C337.904 64.485 337.388 64.665 336.92 65.025C336.464 65.385 336.236 65.961 336.236 66.753V71.001H334.292V62.739ZM344.721 71.181C343.737 71.181 342.915 70.989 342.255 70.605C341.595 70.209 341.109 69.687 340.797 69.039C340.485 68.379 340.329 67.659 340.329 66.879C340.329 66.003 340.509 65.235 340.869 64.575C341.241 63.915 341.751 63.411 342.399 63.063C343.047 62.703 343.779 62.523 344.595 62.523C345.867 62.523 346.809 62.877 347.421 63.585C348.045 64.281 348.357 65.265 348.357 66.537C348.357 66.861 348.339 67.197 348.303 67.545H342.363C342.495 68.277 342.753 68.805 343.137 69.129C343.533 69.453 344.079 69.615 344.775 69.615C345.351 69.615 345.825 69.567 346.197 69.471C346.569 69.375 346.911 69.243 347.223 69.075L347.817 70.461C347.517 70.653 347.109 70.821 346.593 70.965C346.077 71.109 345.453 71.181 344.721 71.181ZM346.467 66.195C346.479 65.451 346.317 64.929 345.981 64.629C345.645 64.317 345.165 64.161 344.541 64.161C343.281 64.161 342.555 64.839 342.363 66.195H346.467ZM354.301 71.181C353.317 71.181 352.495 70.989 351.835 70.605C351.175 70.209 350.689 69.687 350.377 69.039C350.065 68.379 349.909 67.659 349.909 66.879C349.909 66.003 350.089 65.235 350.449 64.575C350.821 63.915 351.331 63.411 351.979 63.063C352.627 62.703 353.359 62.523 354.175 62.523C355.447 62.523 356.389 62.877 357.001 63.585C357.625 64.281 357.937 65.265 357.937 66.537C357.937 66.861 357.919 67.197 357.883 67.545H351.943C352.075 68.277 352.333 68.805 352.717 69.129C353.113 69.453 353.659 69.615 354.355 69.615C354.931 69.615 355.405 69.567 355.777 69.471C356.149 69.375 356.491 69.243 356.803 69.075L357.397 70.461C357.097 70.653 356.689 70.821 356.173 70.965C355.657 71.109 355.033 71.181 354.301 71.181ZM356.047 66.195C356.059 65.451 355.897 64.929 355.561 64.629C355.225 64.317 354.745 64.161 354.121 64.161C352.861 64.161 352.135 64.839 351.943 66.195H356.047Z" fill="#0E6F00"/>
</svg>
